# xmcd
#
# Track frame offsets:
#	150
#	23820
#	43292
#	57154
#	72455
#	94305
#	108840
#	122087
#	133020
#	147867
#	160687
#	174412
#	191472
#	204342
#	220945
#	236692
#	250272
#	265612
#	278472
#	292567
#
# Disc length: 4120 seconds
#
# Revision: 0
# Processed by: cddbd v1.5.2PL0 Copyright (c) Steve Scherf et al.
# Submitted via: audiograbber 1.83.01
#
DISCID=1c101614
DTITLE=David Allan Coe - David Allan Coe - For The Record (First Ten Years)
DYEAR=1984
DGENRE=Country
TTITLE0=David Allan Coe (1975) - You Never Even Called Me By My Name
TTITLE1=David Allan Coe (1976) - Please Come To Boston
TTITLE2=David Allan Coe (1974) - Jody Like A Melody 
TTITLE3=David Allan Coe (1975) - Longhaired Redneck 
TTITLE4=David Allan Coe (1977) - If That Ain't Country 
TTITLE5=David Allan Coe (1976) - Willie, Waylon And Me 
TTITLE6=David Allan Coe (1978) - Take This Job And Shove It 
TTITLE7=David Allan Coe (1977) - Just To Prove My Love For You
TTITLE8=David Allan Coe (1978) - Jack Daniels , If You Please
TTITLE9=David Allan Coe (1978) - Would You Lay With Me (In A Field Of Stone)
TTITLE10=David Allan Coe (1978) - Divers Do It Deeper
TTITLE11=David Allan Coe (1979) - X's And O's (Kisses And Hugs)
TTITLE12=David Allan Coe and George Jones (1980) - This Bottle (In My Hand) 
TTITLE13=David Allan Coe and Bill Anderson (1980) - Get A Little Dirt On 
TTITLE14=David Allan Coe (1981) - Stand By Your Man
TTITLE15=David Allan Coe (1981) - Tennessee Whiskey
TTITLE16=David Allan Coe (1981) - Now I Lay Me Down To Cheat
TTITLE17=David Allan Coe (1982) - What Made You Change Your Mind
TTITLE18=David Allan Coe (1983) - The Ride
TTITLE19=David Allan Coe (1984) - Mona Lisa Lost Her Smile
EXTD=
EXTT0=
EXTT1=
EXTT2=
EXTT3=
EXTT4=
EXTT5=
EXTT6=
EXTT7=
EXTT8=
EXTT9=
EXTT10=
EXTT11=
EXTT12=
EXTT13=
EXTT14=
EXTT15=
EXTT16=
EXTT17=
EXTT18=
EXTT19=
PLAYORDER=
